HIERARCHY
ROOT Hips
{
  OFFSET 57.8838 95.319 338.509
  CHANNELS 6 Xposition Yposition Zposition Zrotation Xrotation Yrotation
  JOINT LeftUpLeg
  {
    OFFSET 8.64259 1.95398 -2.38835
    CHANNELS 3 Zrotation Xrotation Yrotation
    JOINT LeftLeg
    {
      OFFSET 43.7702 0 0
      CHANNELS 3 Zrotation Xrotation Yrotation
      JOINT LeftFoot
      {
        OFFSET 40.6238 0 0
        CHANNELS 3 Zrotation Xrotation Yrotation
        JOINT LeftToeBase
        {
          OFFSET 12.7242 0 0
          CHANNELS 3 Zrotation Xrotation Yrotation
          End Site
          {
            OFFSET 0 0 0
          }
        }
      }
    }
  }
  JOINT RightUpLeg
  {
    OFFSET -8.2249 1.95398 -2.59336
    CHANNELS 3 Zrotation Xrotation Yrotation
    JOINT RightLeg
    {
      OFFSET 43.5653 0 0
      CHANNELS 3 Zrotation Xrotation Yrotation
      JOINT RightFoot
      {
        OFFSET 40.6238 0 0
        CHANNELS 3 Zrotation Xrotation Yrotation
        JOINT RightToeBase
        {
          OFFSET 12.7242 0 0
          CHANNELS 3 Zrotation Xrotation Yrotation
          End Site
          {
            OFFSET 0 0 0
          }
        }
      }
    }
  }
  JOINT Spine
  {
    OFFSET 0.165834 0.87714 6.61349
    CHANNELS 3 Zrotation Xrotation Yrotation
    JOINT Spine1
    {
      OFFSET 7.38963 1.71661e-005 0
      CHANNELS 3 Zrotation Xrotation Yrotation
      JOINT Spine2
      {
        OFFSET 11.9445 1.14441e-005 0
        CHANNELS 3 Zrotation Xrotation Yrotation
        JOINT Spine3
        {
          OFFSET 14.7254 4.19617e-005 0
          CHANNELS 3 Zrotation Xrotation Yrotation
          JOINT Spine4
          {
            OFFSET 10.9679 0 0
            CHANNELS 3 Zrotation Xrotation Yrotation
            JOINT RightShoulder
            {
              OFFSET 2.46616 -1.6653 3.69651
              CHANNELS 3 Zrotation Xrotation Yrotation
              JOINT RightArm
              {
                OFFSET 13.0012 0 0
                CHANNELS 3 Zrotation Xrotation Yrotation
                JOINT RightForeArm
                {
                  OFFSET 28.7848 1.62311e-005 0
                  CHANNELS 3 Zrotation Xrotation Yrotation
                  JOINT RightHand
                  {
                    OFFSET 26.5688 1.62095e-005 0
                    CHANNELS 3 Zrotation Xrotation Yrotation
                    End Site
                    {
                      OFFSET 0 0 0
                    }
                  }
                }
              }
            }
            JOINT LeftShoulder
            {
              OFFSET 2.38034 -1.29275 -3.7523
              CHANNELS 3 Zrotation Xrotation Yrotation
              JOINT LeftArm
              {
                OFFSET 16.3182 6.07031e-005 0
                CHANNELS 3 Zrotation Xrotation Yrotation
                JOINT LeftForeArm
                {
                  OFFSET 27.0901 0 0
                  CHANNELS 3 Zrotation Xrotation Yrotation
                  JOINT LeftHand
                  {
                    OFFSET 24.5451 1.51738e-005 0
                    CHANNELS 3 Zrotation Xrotation Yrotation
                    End Site
                    {
                      OFFSET 0 0 0
                    }
                  }
                }
              }
            }
            JOINT Neck
            {
              OFFSET 5.0226 -0.0266342 0
              CHANNELS 3 Zrotation Xrotation Yrotation
              JOINT Head
              {
                OFFSET 6.69364 2.86102e-005 0
                CHANNELS 3 Zrotation Xrotation Yrotation
                End Site
                {
                  OFFSET 0 0 0
                }
              }
            }
          }
        }
      }
    }
  }
}
MOTION
Frames:	13
Frame Time:	0.0416667
-132.695 96.738 -18.1892 117.194 -84.2005 118.709 178.705 3.12258 84.6587 -16.9305 18.3513 1.75913 59.0142 6.42461 14.0433 37.0307 3.36883 1.20766 172.034 5.60644 91.4876 -23.5902 1.14703 0.383561 67.3078 -1.0097 8.76003 30.4732 -2.25132 1.26114 -0.277101 7.37281 -90.605 12.1229 -0.836852 -1.11476 0.451819 -0.885102 -1.07685 -22.0803 -0.463162 -1.31471 -2.06769 -0.463167 -1.31471 96.6899 -55.7993 -89.912 19.8712 1.27121 -9.17532 1.46935 -10.7106 -16.5403 -15.7448 -1.00849 2.28894 -84.269 -48.849 87.2066 -39.4979 -22.8916 -19.2221 2.44303 70.3984 0.0242391 2.15595 -0.251596 -13.1467 11.5077 -1.19511 -15.3515 -13.22 1.14343 14.0728 
-133.463 97.1579 -18.1161 113.708 -83.3743 114.829 179.037 1.67705 85.0287 -14.0154 19.3623 1.63279 58.6089 5.66054 12.7398 35.2123 2.61301 1.57729 172.187 4.41941 91.6888 -21.6158 3.13192 0.131017 67.8386 -0.0719216 10.1268 28.8247 -0.110209 1.3691 -0.372535 7.23968 -90.4414 12.3908 -0.949919 -0.77335 0.720022 -0.983034 -0.730801 -21.8149 -0.673594 -1.02308 -1.80223 -0.673594 -1.02308 97.179 -55.753 -89.208 22.5007 2.68604 -8.49059 1.18066 -10.9565 -17.2119 -16.1402 -1.0192 2.17826 -83.7483 -48.1234 87.9222 -40.8919 -23.4058 -21.0605 3.93681 72.3576 0.0268306 2.97611 -0.316441 -13.9585 8.74372 -0.84356 -14.2606 -12.3409 1.04647 13.4742 
-134.025 97.4343 -17.9873 109.65 -84.3334 110.641 179.035 0.950457 85.1965 -11.0454 18.1684 1.70312 58.2125 4.77206 11.7103 34.0093 2.11293 0.931163 172.505 4.21111 91.9322 -19.8487 3.67482 -0.0330702 68.1856 0.461577 11.4536 27.3791 1.76505 1.42826 -0.256432 7.00842 -90.3538 12.8548 -0.678645 -0.625713 1.18385 -0.705523 -0.595247 -21.3508 -0.459234 -0.80074 -1.33817 -0.459227 -0.80074 97.3035 -55.4123 -89.0571 24.4066 3.31565 -6.98365 0.844756 -10.8056 -18.3702 -16.052 -0.979698 1.9267 -83.2672 -48.7369 88.7296 -40.4335 -23.4846 -21.644 3.9734 72.3852 0.0268714 2.37791 -0.282161 -14.2565 7.83036 -0.592595 -11.4254 -13.6797 0.669241 10.9813 
-134.551 97.6248 -17.8318 113.594 -85.3696 114.176 179.64 -0.241888 85.3753 -8.73691 17.9451 1.22853 58.2886 4.40177 11.3501 32.4056 1.4554 0.577229 172.966 3.48596 91.9968 -18.3967 3.42963 -0.546083 68.4328 0.623644 12.0679 26.3604 3.09395 1.37604 -0.142095 6.88904 -90.2452 13.095 -0.399972 -0.441295 1.42407 -0.419005 -0.42327 -21.1107 -0.248855 -0.541103 -1.09807 -0.248858 -0.541104 96.9868 -55.5067 -89.5088 25.4357 2.71862 -6.13501 0.813545 -11.0828 -18.4675 -16.9091 -0.968743 1.48386 -82.7164 -49.3402 89.6308 -39.4388 -23.1684 -21.0409 3.11249 71.0191 0.0250012 3.34339 -0.356195 -13.6018 7.52378 -0.188835 -10.9713 -14.3948 0.824084 11.4693 
-135.027 97.7274 -17.7595 111.514 -86.0573 112.063 -179.815 -0.260433 85.8531 -8.00175 17.4215 0.9127 58.9667 4.07477 10.6557 31.3607 1.04137 0.151744 173.203 3.11071 92.2746 -16.8899 2.77848 -0.550976 68.1781 0.584898 11.5694 26.0664 3.39318 2.20263 -0.0968099 6.76728 -90.1939 13.3388 -0.285776 -0.352072 1.6678 -0.30099 -0.339161 -20.8671 -0.166749 -0.421685 -0.85442 -0.166751 -0.421687 96.8172 -55.4503 -89.7604 25.9944 1.43581 -6.20101 0.969051 -11.4401 -17.6805 -16.3875 -1.02338 2.0925 -82.5501 -49.742 89.9203 -38.8047 -22.8104 -20.1817 2.24859 67.7806 0.0215036 4.51159 -0.506676 -14.1744 6.58967 0.0223356 -11.7961 -12.9213 1.05266 13.575 
-135.508 97.7819 -17.8718 114.664 -86.8689 115.33 -179.432 -0.164049 86.3655 -7.79912 17.2918 0.771304 58.8854 3.57509 10.5405 31.8095 1.22878 -0.00630094 173.28 3.08759 92.562 -16.4481 2.24454 -0.387761 68.2081 0.280345 11.7557 25.7013 3.86967 2.12491 -0.0519595 6.67847 -90.1732 13.5165 -0.186959 -0.322756 1.84555 -0.200981 -0.314222 -20.6893 -0.0813167 -0.364017 -0.676671 -0.0813193 -0.364032 96.621 -55.0287 -90.0872 26.69 -0.064494 -6.5952 1.112 -12.4498 -16.0716 -15.0989 -0.947542 2.14871 -82.6422 -50.3759 89.8371 -38.0945 -23.2729 -19.3017 1.97438 65.9367 0.0199431 6.18107 -0.637981 -13.8753 7.02606 0.0982894 -11.8642 -13.2766 1.06073 14.4044 
-135.855 97.7655 -18.1856 117.734 -86.734 118.008 -179.779 0.0029847 86.0904 -8.11213 17.4667 0.923946 58.4356 3.52017 10.5631 32.1705 1.35459 0.730338 173.161 3.61333 92.3502 -17.4503 1.81 -0.319043 68.3359 0.351283 11.4239 25.7762 3.81961 1.69607 -0.0729998 6.6819 -90.1368 13.5098 -0.211053 -0.246717 1.83887 -0.221711 -0.237204 -20.6962 -0.127146 -0.298744 -0.683515 -0.127149 -0.298752 96.674 -54.4754 -90.0642 27.207 -1.13312 -7.22073 1.26561 -13.2424 -14.8068 -13.7843 -0.887063 2.34556 -82.856 -51.3209 89.6009 -37.682 -23.5078 -19.3469 2.19045 65.525 0.0196277 6.13467 -0.660682 -14.2834 8.45031 0.344658 -10.5315 -14.562 1.13513 13.2194 
-136.175 97.7378 -18.4466 124.54 -86.475 124.948 -179.65 -0.190139 86.3751 -8.33297 17.8157 1.01761 58.0208 3.46683 10.7223 32.7911 1.60891 0.854775 173.13 3.46089 92.61 -17.8065 1.69478 -0.184018 68.3334 0.132493 11.1539 25.659 3.98833 1.54258 -0.0807629 6.72475 -90.1379 13.4241 -0.226943 -0.247352 1.75311 -0.237598 -0.237131 -20.7819 -0.142112 -0.304118 -0.769289 -0.142104 -0.304117 96.3521 -54.0352 -90.5836 27.7954 -1.27966 -7.17958 1.2138 -13.2876 -14.6437 -12.6774 -0.796889 2.18556 -82.7455 -51.8534 89.8128 -37.7313 -23.6093 -19.8969 2.71196 65.9956 0.0199891 4.56477 -0.5768 -15.4449 10.2687 0.496579 -9.04451 -16.361 1.13551 11.3582 
-136.48 97.762 -18.5778 137.743 -86.291 138.098 -179.548 -0.853004 86.412 -8.35512 17.0444 1.14784 57.9993 3.33088 10.3527 32.8669 1.64243 0.733449 173.094 2.84365 92.6569 -17.9404 1.38935 -0.210963 68.4909 -0.138834 11.2914 25.5688 4.11966 1.41601 -0.0233647 6.80071 -90.1075 13.2723 -0.0982339 -0.202913 1.60137 -0.107059 -0.198388 -20.9337 -0.0327086 -0.223056 -0.921008 -0.0326979 -0.22304 96.265 -54.0818 -90.7074 28.0749 -1.61997 -7.03772 0.988143 -13.037 -15.0758 -12.1073 -0.742423 2.00841 -82.8899 -51.5878 89.5746 -38.6684 -24.561 -20.5704 3.83394 68.7071 0.0223931 3.45678 -0.43034 -14.923 10.4448 0.673503 -7.5985 -15.8564 1.26085 9.52556 
-136.749 97.7428 -18.6647 134.935 -86.2857 135.182 -179.54 -0.6531 86.4926 -8.36579 17.1773 1.12986 57.9416 3.28608 10.3395 33.3105 1.82508 0.755948 173.202 3.06792 92.7856 -18.0422 1.51139 -0.277977 68.4827 0.0227195 11.0807 25.582 4.08801 1.54377 -0.0292762 6.77094 -90.0942 13.3319 -0.103564 -0.175508 1.66093 -0.111193 -0.170789 -20.8742 -0.0460308 -0.198526 -0.861504 -0.0460275 -0.198524 96.1905 -54.0431 -90.8219 28.0515 -2.48506 -6.78605 1.01623 -12.6201 -15.681 -12.771 -0.780911 1.97536 -82.9751 -51.6274 89.4512 -39.5777 -25.3294 -21.7246 4.9479 68.3321 0.0220236 6.86403 -0.605446 -13.8054 10.2946 0.486287 -7.46885 -15.5546 0.925002 10.6701 
-137.024 97.7466 -18.7567 134.085 -86.2563 134.457 -179.418 -0.588107 86.7901 -8.36859 17.3782 1.18944 58.0238 3.29855 10.2285 33.081 1.73211 0.650248 173.349 3.03659 93.1152 -17.8926 1.77889 -0.2915 68.5183 -0.060895 11.1184 25.4123 4.29835 1.62848 -0.0609712 6.74086 -90.1078 13.392 -0.173067 -0.193875 1.721 -0.181435 -0.186078 -20.8141 -0.106803 -0.236925 -0.801442 -0.1068 -0.236932 96.1536 -54.0996 -90.8696 27.9039 -2.80237 -6.79525 0.946363 -12.5722 -15.8449 -12.5539 -0.745378 1.76586 -82.7788 -51.425 89.7253 -40.9801 -26.7548 -22.5884 6.65203 68.7534 0.0224395 8.21341 -0.637821 -13.33 10.2029 0.516524 -7.1551 -15.9436 0.816305 10.8551 
-137.248 97.7681 -18.8886 138.594 -86.2379 138.827 -179.442 -0.715366 86.7642 -8.33362 16.831 1.24578 58.0047 3.11561 10.0662 33.0946 1.74451 0.259163 173.326 3.0395 93.0844 -18.1601 1.57431 -0.279075 68.5323 0.000462096 11.3384 25.477 4.2593 1.24151 -0.045265 6.72636 -90.1058 13.421 -0.140933 -0.193866 1.75002 -0.149338 -0.187477 -20.785 -0.0761645 -0.227262 -0.772389 -0.0761655 -0.227261 96.3175 -53.9966 -90.6387 28.0689 -2.36722 -6.87178 0.890988 -12.9977 -15.6117 -12.5961 -0.735149 1.64653 -82.8396 -51.5311 89.6445 -41.583 -27.4764 -22.9153 7.74105 67.3445 0.021111 8.12117 -0.618411 -13.4961 9.95138 0.779191 -8.32822 -16.4745 1.02717 12.7988 
-137.485 97.7751 -19.0178 148.518 -86.2292 148.842 -179.063 -1.14498 87.0557 -8.26018 17.0995 1.11862 58.0869 3.12504 10.1593 32.9098 1.65857 0.814444 173.378 2.71392 93.2682 -18.1079 1.10843 -0.259003 68.4411 -0.436665 10.9769 25.4291 4.28482 1.55757 -0.00440879 6.7527 -90.1267 13.3684 -0.0699518 -0.244864 1.69737 -0.0806616 -0.241552 -20.8376 0.00687401 -0.254568 -0.824945 0.00686682 -0.254573 96.2245 -53.9426 -90.7825 28.0379 -2.12982 -6.95673 1.06929 -12.4536 -15.445 -12.3169 -0.733011 1.78907 -82.6403 -51.3993 89.9287 -41.9369 -27.7865 -23.1268 8.22252 66.0679 0.0200459 7.83032 -0.516765 -12.8307 10.3743 1.01246 -6.54815 -17.4905 1.06644 10.5787 
